<svg width="146" height="20" viewBox="0 0 146 20" fill="none" xmlns="http://www.w3.org/2000/svg">
    <path fill-rule="evenodd" clip-rule="evenodd" d="M0 19.7474H3.32533V0.252632H0V19.7474ZM56.0255 0.252632L54.6785 4.71579H46.8072L45.4602 0.252632H41.8823L47.8174 19.7474H53.7104L59.6455 0.252632H56.0255ZM51.1006 16.4211H50.385L47.8174 8.04211H53.6683L51.1006 16.4211ZM108.136 0.252632H102.243L96.3083 19.7474H99.8862L101.233 15.2842H109.104L110.451 19.7474H114.029L108.136 0.252632ZM102.285 11.9579L104.811 3.57895H105.527L108.094 11.9579H102.285ZM13.8906 0.252632H7.23996V19.7474H13.8906C19.2785 19.7474 23.5299 15.4947 23.5299 10.0211C23.5299 4.63158 19.1943 0.252632 13.8906 0.252632ZM13.8906 16.4211H10.6074V3.57895H13.8906C17.3843 3.57895 20.2045 6.48421 20.2045 10.0211C20.2045 13.6 17.4264 16.4211 13.8906 16.4211ZM26.3922 19.7474H39.483V16.4211H29.7175V11.6632H39.4409V8.33684H29.7175V3.57895H39.4409V0.252632H26.3922V19.7474ZM86.206 3.41053C88.6895 3.41053 90.8783 4.8 92.0148 7.07368L92.1411 7.32632L95.2139 5.76842L95.0876 5.51579C93.3618 2.10526 89.9944 0 86.206 0C80.7339 0 76.3142 4.50526 76.3142 10.0211C76.3142 15.6211 80.6498 20 86.206 20C89.9944 20 93.4039 17.8947 95.0455 14.4842L95.1718 14.2316L92.099 12.6737L91.9727 12.9263C90.8783 15.1579 88.6895 16.5474 86.1639 16.5474C82.5439 16.5474 79.6816 13.6842 79.6816 9.97895C79.7237 6.4 82.6281 3.41053 86.206 3.41053ZM120.217 0.252632H116.892V19.7474H129.393V16.4211H120.217V0.252632ZM145.641 3.57895V0.252632H132.55V19.7474H145.641V16.4211H135.918V11.6632H145.641V8.33684H135.918V3.57895H145.641ZM69.411 8.50526L69.0322 8.42105C68.4849 8.29474 67.9377 8.16842 67.3905 8.04211C65.5805 7.57895 64.7387 6.73684 64.7387 5.47368C64.7387 4.08421 65.791 3.15789 67.4326 3.15789C69.1584 3.15789 70.2949 4.08421 70.5896 5.85263L73.6203 4.67368C73.1572 1.97895 70.6317 0 67.4326 0C63.981 0 61.4134 2.31579 61.4134 5.34737C61.4134 8.96842 64.0231 10.5263 66.2119 11.2C66.8433 11.4105 67.601 11.6211 68.2745 11.7474C70.0424 12.0842 70.8842 12.8842 70.8842 14.1895C70.8842 15.7895 69.6215 16.8 67.6852 16.8C66.7591 16.8 65.9173 16.5474 65.2017 15.7474C63.9389 14.4 63.8126 12.8421 63.8126 12.8421L60.8241 14.0211C60.9082 15.5368 61.6659 17.0947 62.9708 18.2316C64.2757 19.3684 66.0015 20 67.6852 20C71.9366 20 74.2096 16.9684 74.2096 14.1474C74.2517 10.4421 71.5998 9.05263 69.411 8.50526Z" fill="#384EC1"/>
</svg>
